<svg width="129" height="16" viewBox="0 0 129 16" fill="none" xmlns="http://www.w3.org/2000/svg">
<path d="M95.304 0.243869H93.4476L88.4457 13.9047L88.4416 15.7969H90.298L95.304 2.12475V0.243869Z" fill="#FFE629"/>
<path d="M99.0777 8.98843H95.37L94.6478 10.9457H97.2492L99.0255 15.797H100.882L100.878 13.9048L99.0777 8.98843Z" fill="#FFE629"/>
<path d="M6.32869 7.27693L4.02888 6.44167C3.40482 6.21016 2.94076 5.92165 2.63496 5.57434C2.33002 5.22884 2.17714 4.76403 2.17714 4.17808C2.17714 3.52628 2.4047 2.99021 2.85896 2.5681C3.31325 2.1478 3.89997 1.93588 4.61917 1.93588C5.40591 1.93588 6.03355 2.17096 6.50114 2.63935C6.96964 3.10952 7.20344 3.70971 7.20344 4.44346V4.68745H9.33966V4.44346C9.33966 3.57435 9.14322 2.80322 8.75026 2.13002C8.35646 1.45682 7.8035 0.934991 7.09143 0.560992C6.37936 0.186993 5.55527 0 4.61917 0C3.72396 0 2.92654 0.183433 2.2278 0.550323C1.52905 0.917189 0.983214 1.42653 0.590292 2.08016C0.196478 2.73196 0 3.47285 0 4.30098C0 5.22527 0.250701 6.0481 0.75297 6.76759C1.25436 7.48708 2.08912 8.05876 3.25545 8.47906L5.31079 9.19323C5.97575 9.45145 6.46737 9.77025 6.78652 10.1514C7.10477 10.5307 7.26479 11.0347 7.26479 11.6598C7.26479 12.1069 7.15543 12.5147 6.93853 12.8815C6.7216 13.2484 6.42024 13.5387 6.03355 13.7489C5.64682 13.959 5.21566 14.0641 4.74096 14.0641C3.96842 14.0641 3.33724 13.8308 2.84919 13.3606C2.36025 12.8922 2.11668 12.2778 2.11668 11.5174V11.2716H2.0315e-06V11.4764C2.0315e-06 12.3598 0.19648 13.1433 0.590294 13.8308C0.983214 14.5165 1.54328 15.049 2.2687 15.4301C2.9941 15.8112 3.81818 16 4.74096 16C5.66374 16 6.4807 15.813 7.19365 15.4408C7.90575 15.0668 8.45779 14.5396 8.85164 13.8611C9.24544 13.1808 9.44191 12.4007 9.44191 11.5174C9.44191 10.5521 9.20102 9.70613 8.71918 8.97952C8.23821 8.25289 7.4408 7.68478 6.32869 7.27693Z" fill="#FFE629"/>
<path d="M21.7428 0.84584C21.0175 0.445127 20.1791 0.243869 19.2297 0.243869H14.6514V15.7969H16.7876V9.76299H19.1692C20.132 9.76299 20.9828 9.56711 21.7224 9.17172C22.4621 8.77814 23.0354 8.22071 23.4417 7.50122C23.8488 6.78171 24.0524 5.95178 24.0524 5.01501C24.0524 4.09071 23.8488 3.26436 23.4417 2.53774C23.0354 1.8111 22.4682 1.24655 21.7428 0.84584ZM21.061 7.0738C20.5454 7.57602 19.8467 7.82711 18.9657 7.82711H16.7876V2.18154H18.9657C19.8467 2.18154 20.5454 2.43621 21.061 2.94556C21.5766 3.4549 21.8344 4.14414 21.8344 5.01501C21.8344 5.88414 21.5766 6.56978 21.061 7.0738Z" fill="#FFE629"/>
<path d="M29.3224 0.243869V15.7969H38.662V13.861H31.4585V8.9687H37.2379V7.01146H31.4585V2.18154H38.662V0.243869H29.3224Z" fill="#FFE629"/>
<path d="M64.1776 7.01146V7.03283H61.878V0.243869H59.7417V15.7969H61.878V8.98829H64.242L67.8607 15.7969H69.7535V14.7977L65.9682 7.95001L69.7535 1.24298V0.243869H67.8607L64.1776 7.01146Z" fill="#FFE629"/>
<path d="M74.7184 0.243869V15.7969H84.058V13.861H76.8545V8.9687H82.6339V7.01146H76.8545V2.18154H84.058V0.243869H74.7184Z" fill="#FFE629"/>
<path d="M110.91 7.27693L108.61 6.44168C107.986 6.21016 107.522 5.92165 107.216 5.57434C106.911 5.22884 106.758 4.76403 106.758 4.17808C106.758 3.52628 106.986 2.99021 107.44 2.5681C107.894 2.14781 108.481 1.93588 109.2 1.93588C109.987 1.93588 110.615 2.17096 111.082 2.63935C111.551 3.10952 111.785 3.70971 111.785 4.44346V4.68745H113.921V4.44346C113.921 3.57436 113.724 2.80322 113.332 2.13002C112.938 1.45682 112.385 0.934993 111.673 0.560995C110.961 0.186996 110.136 2.31779e-06 109.2 2.31779e-06C108.305 2.31779e-06 107.508 0.183435 106.809 0.550325C106.11 0.917191 105.564 1.42654 105.172 2.08017C104.778 2.73197 104.581 3.47285 104.581 4.30098C104.581 5.22528 104.832 6.0481 105.334 6.76759C105.835 7.48708 106.67 8.05876 107.837 8.47906L109.892 9.19323C110.557 9.45145 111.049 9.77025 111.368 10.1514C111.686 10.5307 111.846 11.0347 111.846 11.6598C111.846 12.1069 111.737 12.5147 111.52 12.8816C111.303 13.2484 111.001 13.5387 110.615 13.7489C110.228 13.959 109.797 14.0641 109.322 14.0641C108.55 14.0641 107.918 13.8308 107.43 13.3606C106.941 12.8922 106.698 12.2778 106.698 11.5174V11.2716H104.581V11.4764C104.581 12.3598 104.778 13.1433 105.172 13.8308C105.564 14.5165 106.125 15.049 106.85 15.4301C107.575 15.8112 108.399 16 109.322 16C110.245 16 111.062 15.813 111.775 15.4408C112.487 15.0668 113.039 14.5396 113.433 13.8611C113.827 13.1808 114.023 12.4007 114.023 11.5174C114.023 10.5521 113.782 9.70613 113.3 8.97952C112.819 8.2529 112.022 7.68478 110.91 7.27693Z" fill="#FFE629"/>
<path d="M127.088 0.243869L124.096 6.70691H123.742L120.759 0.243869H118.846V1.20201L122.855 9.519V15.7969H125.012V9.45846L129 1.2234V0.243869H127.088Z" fill="#FFE629"/>
<path d="M49.8316 0.243869H47.9752L42.9733 13.9047L42.9692 15.7969H44.8256L49.8316 2.12475V0.243869Z" fill="#FFE629"/>
<path d="M53.6051 8.98843H49.8974L49.1752 10.9457H51.7767L53.5529 15.797H55.4095L55.4052 13.9048L53.6051 8.98843Z" fill="#FFE629"/>
</svg>
