<svg width="182" height="48" viewBox="0 0 182 48" fill="none" xmlns="http://www.w3.org/2000/svg">
<path d="M150.736 23.1095L147.764 22.0584C146.954 21.7664 146.353 21.4161 145.963 20.9781C145.573 20.5401 145.363 19.9562 145.363 19.2263C145.363 18.4088 145.663 17.7372 146.233 17.2117C146.804 16.6861 147.584 16.4234 148.485 16.4234C149.505 16.4234 150.316 16.7153 150.916 17.2993C151.516 17.8832 151.817 18.6423 151.817 19.5474V19.8394H154.578V19.5474C154.578 18.4672 154.338 17.5036 153.828 16.6569C153.318 15.8102 152.597 15.1679 151.697 14.7007C150.766 14.2336 149.715 14 148.515 14C147.374 14 146.323 14.2336 145.423 14.7007C144.522 15.1679 143.832 15.8102 143.322 16.5985C142.811 17.4161 142.571 18.3504 142.571 19.3723C142.571 20.5401 142.901 21.562 143.532 22.4672C144.162 23.3723 145.243 24.073 146.744 24.5985L149.385 25.5037C150.256 25.8248 150.886 26.2336 151.276 26.7007C151.697 27.1679 151.907 27.8102 151.907 28.5985C151.907 29.1533 151.757 29.6788 151.486 30.1168C151.216 30.5839 150.826 30.9343 150.316 31.1971C149.805 31.4599 149.265 31.5766 148.665 31.5766C147.674 31.5766 146.864 31.2847 146.233 30.7007C145.603 30.1168 145.303 29.3577 145.303 28.3942V28.073H142.571V28.3358C142.571 29.4453 142.811 30.4088 143.322 31.2847C143.832 32.1314 144.552 32.8029 145.483 33.2701C146.413 33.7372 147.464 33.9708 148.665 33.9708C149.865 33.9708 150.916 33.7372 151.817 33.2701C152.747 32.8029 153.438 32.1314 153.948 31.2847C154.458 30.438 154.698 29.4453 154.698 28.365C154.698 27.1679 154.398 26.0876 153.768 25.1825C153.167 24.3358 152.147 23.635 150.736 23.1095Z" fill="#212015"/>
<path d="M13.1631 22.0584L16.1349 23.1095C17.5758 23.635 18.5964 24.3358 19.1967 25.2117C19.8271 26.1168 20.1273 27.1971 20.1273 28.3942C20.1273 29.4745 19.8872 30.4672 19.3769 31.3139C18.8665 32.1606 18.1761 32.8321 17.2456 33.2993C16.345 33.7664 15.2944 34 14.0937 34C12.8929 34 11.8423 33.7664 10.9118 33.2993C9.98119 32.8321 9.26076 32.1606 8.75045 31.3139C8.24014 30.438 8 29.4745 8 28.365V28.1022H10.7316V28.4234C10.7316 29.3869 11.0318 30.146 11.6622 30.7299C12.2926 31.3139 13.1031 31.6058 14.0937 31.6058C14.694 31.6058 15.2344 31.4891 15.7447 31.2263C16.255 30.9635 16.6452 30.6131 16.9154 30.146C17.1855 29.708 17.3356 29.1825 17.3356 28.6277C17.3356 27.8394 17.1555 27.1971 16.7353 26.7299C16.345 26.2628 15.7147 25.854 14.8441 25.5328L12.2025 24.6277C10.7016 24.1022 9.62098 23.3723 8.96058 22.4964C8.33019 21.5912 8 20.5693 8 19.4015C8 18.3796 8.24014 17.4453 8.75045 16.6277C9.26076 15.8394 9.95118 15.1971 10.8517 14.7299C11.7523 14.2628 12.8029 14.0292 13.9436 14.0292C15.1443 14.0292 16.1949 14.2628 17.1255 14.7007C18.026 15.1679 18.7465 15.8102 19.2568 16.6569C19.7671 17.5036 20.0072 18.4672 20.0072 19.5474V19.8394H17.2156V19.5474C17.2156 18.6423 16.9154 17.8832 16.315 17.2993C15.7147 16.7153 14.9042 16.4234 13.8835 16.4234C12.983 16.4234 12.2025 16.6861 11.6322 17.2117C11.0618 17.7372 10.7617 18.4088 10.7617 19.2263C10.7617 19.9562 10.9718 20.5401 11.362 20.9781C11.7523 21.4161 12.3526 21.7664 13.1631 22.0584Z" fill="#212015"/>
<path d="M121.829 31.4015L121.799 33.7664H124.2L130.654 16.6861V14.3212H128.252L121.829 31.4015Z" fill="#212015"/>
<path d="M136.417 27.7226L135.487 25.2701H130.714L129.783 27.7226H133.145L135.427 33.7664H137.828L137.798 31.4015L136.417 27.7226Z" fill="#212015"/>
<path fill-rule="evenodd" clip-rule="evenodd" d="M35.9769 15.0803C35.0463 14.5839 33.9656 14.3212 32.7349 14.3212H26.8514V33.7664H29.613V26.2336H32.6749C33.9056 26.2336 35.0163 26 35.9468 25.5037C36.9074 25.0073 37.6279 24.3066 38.1682 23.4015C38.6785 22.4964 38.9486 21.4745 38.9486 20.3066C38.9486 19.1387 38.6785 18.1168 38.1682 17.2117C37.6279 16.3066 36.9074 15.5766 35.9769 15.0803ZM35.1063 22.8759C34.4459 23.4891 33.5454 23.8102 32.4047 23.8102H29.613V16.7445H32.4047C33.5454 16.7445 34.4459 17.0657 35.1063 17.708C35.7667 18.3504 36.0969 19.1971 36.0969 20.3066C36.0969 21.3869 35.7667 22.2336 35.1063 22.8759Z" fill="#212015"/>
<path d="M45.7327 33.7664V14.3212H57.74V16.7445H48.4944V22.7883H55.9089V25.2409H48.4944V31.3431H57.74V33.7664H45.7327Z" fill="#212015"/>
<path d="M90.5797 22.7883V22.8175H87.638V14.3212H84.8763V33.7664H87.638V25.2701H90.6698L95.3226 33.7664H97.7541V32.511L92.8911 23.9562L97.7541 15.5766V14.3212H95.3226L90.5797 22.7883Z" fill="#212015"/>
<path d="M104.148 33.7664V14.3212H116.155V16.7445H106.91V22.7883H114.324V25.2409H106.91V31.3431H116.155V33.7664H104.148Z" fill="#212015"/>
<path d="M167.696 22.4088L171.539 14.3212H174V15.5475L168.867 25.854V33.7664H166.105V25.9124L160.942 15.5183V14.3212H163.404L167.246 22.4088H167.696Z" fill="#212015"/>
<path d="M63.2933 31.4015V33.7664H65.6948L72.1186 16.6861V14.3212H69.7472L63.2933 31.4015Z" fill="#212015"/>
<path d="M76.9816 25.2701L77.9121 27.7226L79.2929 31.4015V33.7664H76.9215L74.6401 27.7226H71.2781L72.2087 25.2701H76.9816Z" fill="#212015"/>
</svg>
